<?xml version="1.0" encoding="UTF-8" standalone="no"?>
<svg
   id="vlpa"
   version="1.1"
   viewBox="0 0 1862.7306 300.63153"
   xml:space="preserve"
   sodipodi:docname="logo.svg"
   inkscape:version="1.4.2 (ebf0e940d0, 2025-05-08)"
   width="1862.7306"
   height="300.63153"
   xmlns:inkscape="http://www.inkscape.org/namespaces/inkscape"
   xmlns:sodipodi="http://sodipodi.sourceforge.net/DTD/sodipodi-0.dtd"
   xmlns="http://www.w3.org/2000/svg"
   xmlns:svg="http://www.w3.org/2000/svg"
   xmlns:rdf="http://www.w3.org/1999/02/22-rdf-syntax-ns#"
   xmlns:cc="http://creativecommons.org/ns#"
   xmlns:dc="http://purl.org/dc/elements/1.1/"><defs
   id="defs8" /><sodipodi:namedview
   id="namedview8"
   pagecolor="#ffffff"
   bordercolor="#666666"
   borderopacity="1.0"
   inkscape:showpageshadow="2"
   inkscape:pageopacity="0.0"
   inkscape:pagecheckerboard="0"
   inkscape:deskcolor="#d1d1d1"
   inkscape:zoom="0.43756028"
   inkscape:cx="1326.6744"
   inkscape:cy="554.20935"
   inkscape:window-width="1920"
   inkscape:window-height="1200"
   inkscape:window-x="0"
   inkscape:window-y="0"
   inkscape:window-maximized="1"
   inkscape:current-layer="g8"
   showgrid="false" /><title
   id="title1">Vulkan API logo</title><desc
   id="desc1">A low-overhead graphics API from Khronos Group</desc><metadata
   id="metadata1"><rdf:RDF><cc:Work
       rdf:about=""><dc:format>image/svg+xml</dc:format><dc:type
         rdf:resource="http://purl.org/dc/dcmitype/StillImage" /><dc:title>Vulkan API logo</dc:title></cc:Work></rdf:RDF></metadata>
<g
   transform="matrix(0.994,0,0,1,-101.33612,-91.61399)"
   id="g8">
	<g
   id="g47"
   transform="translate(-153.73823,3.6692337)"><path
     id="rect9"
     style="opacity:1;fill:#ac162c;fill-opacity:1;stroke-width:2.73469;stroke-linecap:round;stroke-linejoin:round"
     d="m 1683.7824,112.30832 c -0.1823,-0.0302 -1.5438,7.18789 -3.0525,16.18626 l -26.3029,156.87727 c -1.5087,8.99837 -2.5762,16.26715 -2.3939,16.29735 l 459.729,76.1586 c 0.1823,0.0302 1.5441,-7.18982 3.0528,-16.18819 l 14.8456,-88.54244 -66.793,-97.9897 z" /><ellipse
     style="opacity:1;fill:#ffffff;fill-opacity:1;stroke-width:4.17001;stroke-linecap:round;stroke-linejoin:round"
     id="path9"
     cx="1795.416"
     cy="-68.384918"
     rx="88.504684"
     ry="88.002281"
     transform="matrix(0.98655454,0.16343239,-0.16535758,0.98623368,0,0)" /><path
     id="path10"
     style="opacity:1;fill:#ac162c;fill-opacity:1;stroke-width:0.721003;stroke-linecap:round;stroke-linejoin:round"
     inkscape:transform-center-y="-41.549186"
     d="m 1784.6866,213.44469 c -17.5772,-32.65634 -14.0234,-55.20225 -14.0234,-55.20225 14.9704,-5.85244 34.8397,-0.17736 45.2997,7.50434 0,0 -25.1659,13.89807 -31.2763,47.69791 z"
     sodipodi:nodetypes="cccc"
     inkscape:transform-center-x="-10.331183" /><ellipse
     style="opacity:1;fill:#ac162c;fill-opacity:1;stroke-width:0.721003;stroke-linecap:round;stroke-linejoin:round"
     id="path24"
     cx="1795.416"
     cy="-68.384918"
     rx="9.7280884"
     ry="9.6728649"
     transform="matrix(0.98655454,0.16343239,-0.16535758,0.98623368,0,0)" /><path
     id="path25"
     style="opacity:1;fill:#ac162c;fill-opacity:1;stroke-width:0.721003;stroke-linecap:round;stroke-linejoin:round"
     inkscape:transform-center-y="-28.829256"
     d="m 1794.051,219.84084 c 15.0672,-33.87324 35.1288,-44.97022 35.1288,-44.97022 13.8563,8.12294 21.59,27.18013 21.94,40.1026 0,0 -26.5115,-11.15549 -57.0688,4.86762 z"
     sodipodi:nodetypes="cccc"
     inkscape:transform-center-x="-39.574333" /><path
     id="path26"
     style="opacity:1;fill:#ac162c;fill-opacity:1;stroke-width:0.721003;stroke-linecap:round;stroke-linejoin:round"
     inkscape:transform-center-y="22.066837"
     d="m 1794.9112,230.6952 c 35.7902,-10.30033 57.2376,-2.15748 57.2376,-2.15748 2.6466,15.77221 -7.069,33.91077 -16.803,42.4837 0,0 -8.4442,-27.35783 -40.4346,-40.32622 z"
     sodipodi:nodetypes="cccc"
     inkscape:transform-center-x="-40.732668" /><path
     id="path27"
     style="opacity:1;fill:#ac162c;fill-opacity:1;stroke-width:0.721003;stroke-linecap:round;stroke-linejoin:round"
     inkscape:transform-center-y="40.714277"
     d="m 1787.0991,238.32737 c 30.9436,20.63134 38.4543,42.1966 38.4543,42.1966 -10.4539,12.15343 -30.6779,16.41471 -43.5417,14.51337 0,0 15.6562,-24.01503 5.0874,-56.70997 z"
     sodipodi:nodetypes="cccc"
     inkscape:transform-center-x="-20.8843" /><path
     id="path28"
     style="opacity:1;fill:#ac162c;fill-opacity:1;stroke-width:0.721003;stroke-linecap:round;stroke-linejoin:round"
     inkscape:transform-center-y="39.301919"
     d="m 1776.1957,237.2847 c 3.9903,36.82351 -7.8016,56.4044 -7.8016,56.4044 -16.0859,-0.14806 -32.3697,-12.80842 -39.1731,-23.82567 0,0 28.5712,-3.51529 46.9747,-32.57873 z"
     sodipodi:nodetypes="cccc"
     inkscape:transform-center-x="29.473739" /><path
     id="path29"
     style="opacity:1;fill:#ac162c;fill-opacity:1;stroke-width:0.721003;stroke-linecap:round;stroke-linejoin:round"
     inkscape:transform-center-y="9.8711027"
     d="m 1769.9907,228.31212 c -25.8139,26.70804 -48.4839,30.31549 -48.4839,30.31549 -10.2257,-12.34376 -10.9357,-32.88088 -6.8182,-45.14305 0,0 21.0743,19.49585 55.3021,14.82756 z"
     sodipodi:nodetypes="cccc"
     inkscape:transform-center-x="41.358576" /><path
     id="path30"
     style="opacity:1;fill:#ac162c;fill-opacity:1;stroke-width:0.721003;stroke-linecap:round;stroke-linejoin:round"
     inkscape:transform-center-y="-35.278696"
     d="m 1773.3711,217.31863 c -36.9939,-4.41884 -53.5356,-20.24431 -53.5356,-20.24431 3.7637,-15.54627 19.8371,-28.4695 32.1671,-32.58037 0,0 -2.9811,28.46261 21.3685,52.82468 z"
     sodipodi:nodetypes="cccc"
     inkscape:transform-center-x="35.951878" /><ellipse
     style="opacity:1;fill:#ffffff;fill-opacity:1;stroke-width:4.17001;stroke-linecap:round;stroke-linejoin:round"
     id="ellipse37"
     cx="2004.0342"
     cy="-68.384918"
     rx="88.504684"
     ry="88.002281"
     transform="matrix(0.98655454,0.16343239,-0.16535758,0.98623368,0,0)" /><path
     id="path37"
     style="opacity:1;fill:#ac162c;fill-opacity:1;stroke-width:0.721003;stroke-linecap:round;stroke-linejoin:round"
     inkscape:transform-center-y="-41.549182"
     d="m 1990.4998,247.53966 c -17.5772,-32.65634 -14.0234,-55.20225 -14.0234,-55.20225 14.9704,-5.85244 34.8397,-0.17736 45.2997,7.50434 0,0 -25.1659,13.89806 -31.2763,47.69791 z"
     sodipodi:nodetypes="cccc"
     inkscape:transform-center-x="-10.331185" /><ellipse
     style="opacity:1;fill:#ac162c;fill-opacity:1;stroke-width:0.721003;stroke-linecap:round;stroke-linejoin:round"
     id="ellipse38"
     cx="2004.0342"
     cy="-68.384918"
     rx="9.7280884"
     ry="9.6728649"
     transform="matrix(0.98655454,0.16343239,-0.16535758,0.98623368,0,0)" /><path
     id="path38"
     style="opacity:1;fill:#ac162c;fill-opacity:1;stroke-width:0.721003;stroke-linecap:round;stroke-linejoin:round"
     inkscape:transform-center-y="-28.829262"
     d="m 1999.8642,253.9358 c 15.0672,-33.87323 35.1288,-44.97022 35.1288,-44.97022 13.8563,8.12295 21.59,27.18013 21.94,40.1026 0,0 -26.5115,-11.15548 -57.0688,4.86762 z"
     sodipodi:nodetypes="cccc"
     inkscape:transform-center-x="-39.574335" /><path
     id="path39"
     style="opacity:1;fill:#ac162c;fill-opacity:1;stroke-width:0.721003;stroke-linecap:round;stroke-linejoin:round"
     inkscape:transform-center-y="22.066841"
     d="m 2000.7244,264.79017 c 35.7902,-10.30033 57.2376,-2.15748 57.2376,-2.15748 2.6466,15.77221 -7.069,33.91077 -16.803,42.4837 0,0 -8.4442,-27.35783 -40.4346,-40.32622 z"
     sodipodi:nodetypes="cccc"
     inkscape:transform-center-x="-40.73267" /><path
     id="path40"
     style="opacity:1;fill:#ac162c;fill-opacity:1;stroke-width:0.721003;stroke-linecap:round;stroke-linejoin:round"
     inkscape:transform-center-y="40.714281"
     d="m 1992.9123,272.42234 c 30.9436,20.63134 38.4543,42.19659 38.4543,42.19659 -10.4539,12.15344 -30.6779,16.41472 -43.5417,14.51338 0,0 15.6562,-24.01503 5.0874,-56.70997 z"
     sodipodi:nodetypes="cccc"
     inkscape:transform-center-x="-20.884301" /><path
     id="path41"
     style="opacity:1;fill:#ac162c;fill-opacity:1;stroke-width:0.721003;stroke-linecap:round;stroke-linejoin:round"
     inkscape:transform-center-y="39.301918"
     d="m 1982.0089,271.37967 c 3.9903,36.8235 -7.8016,56.40439 -7.8016,56.40439 -16.0859,-0.14806 -32.3697,-12.80841 -39.1731,-23.82566 0,0 28.5712,-3.5153 46.9747,-32.57873 z"
     sodipodi:nodetypes="cccc"
     inkscape:transform-center-x="29.473737" /><path
     id="path42"
     style="opacity:1;fill:#ac162c;fill-opacity:1;stroke-width:0.721003;stroke-linecap:round;stroke-linejoin:round"
     inkscape:transform-center-y="9.8711014"
     d="m 1975.8039,262.40709 c -25.8139,26.70803 -48.4839,30.31548 -48.4839,30.31548 -10.2257,-12.34376 -10.9357,-32.88088 -6.8182,-45.14304 0,0 21.0743,19.49585 55.3021,14.82756 z"
     sodipodi:nodetypes="cccc"
     inkscape:transform-center-x="41.358574" /><path
     id="path43"
     style="opacity:1;fill:#ac162c;fill-opacity:1;stroke-width:0.721003;stroke-linecap:round;stroke-linejoin:round"
     inkscape:transform-center-y="-35.278698"
     d="m 1979.1843,251.4136 c -36.9939,-4.41884 -53.5356,-20.24431 -53.5356,-20.24431 3.7637,-15.54628 19.8371,-28.4695 32.1671,-32.58038 0,0 -2.9811,28.46262 21.3685,52.82469 z"
     sodipodi:nodetypes="cccc"
     inkscape:transform-center-x="35.951876" /><rect
     style="opacity:1;fill:#ac162c;fill-opacity:1;stroke-width:4.5669;stroke-linecap:round;stroke-linejoin:round"
     id="rect43"
     width="291.92267"
     height="31.010229"
     x="1678.3999"
     y="36.581459"
     rx="0.61049265"
     ry="25.096031"
     transform="matrix(0.98655454,0.16343239,-0.16535758,0.98623368,0,0)" /><rect
     style="opacity:1;fill:#ac162c;fill-opacity:1;stroke-width:2.49969;stroke-linecap:round;stroke-linejoin:round"
     id="rect44"
     width="211.93756"
     height="12.796646"
     x="-164.38739"
     y="-1667.6466"
     rx="0.44322124"
     ry="10.356101"
     transform="matrix(-0.16535758,0.98623368,-0.98655454,-0.16343239,0,0)" /><rect
     style="opacity:1;fill:#ac162c;fill-opacity:1;stroke-width:1.12641;stroke-linecap:round;stroke-linejoin:round"
     id="rect45"
     width="43.281384"
     height="12.724004"
     x="1624.3654"
     y="-164.38739"
     rx="0.090513587"
     ry="10.297315"
     transform="matrix(0.98655454,0.16343239,-0.16535758,0.98623368,0,0)" /></g><text
   xml:space="preserve"
   style="font-size:133.735px;line-height:1.25;font-family:Pricedown;-inkscape-font-specification:Pricedown;letter-spacing:0px;word-spacing:0px;fill:#0052be;fill-opacity:1;stroke-width:1.00301"
   x="650.39801"
   y="209.12839"
   id="text8"
   transform="scale(1.0030136,0.99699547)"><tspan
     sodipodi:role="line"
     id="tspan8"
     style="font-style:normal;font-variant:normal;font-weight:bold;font-stretch:normal;font-size:133.735px;font-family:'Liberation Sans';-inkscape-font-specification:'Liberation Sans Bold';fill:#0052be;fill-opacity:1;stroke-width:1.00301"
     x="650.39801"
     y="209.12839">Computation</tspan><tspan
     sodipodi:role="line"
     style="font-style:normal;font-variant:normal;font-weight:bold;font-stretch:normal;font-size:133.735px;font-family:'Liberation Sans';-inkscape-font-specification:'Liberation Sans Bold';fill:#0052be;fill-opacity:1;stroke-width:1.00301"
     x="650.39801"
     y="379.60718"
     id="tspan9">Visualization</tspan></text><path
   d="m 491.51401,385 h -40.6 V 181.4 h 40.6 z"
   fill="#ac162c"
   id="path1"
   sodipodi:nodetypes="ccccc" />
	<g
   fill="#ac162c"
   id="g3">
		<path
   d="m 382,385 h -50.6 l -66,-204 h 46 l 45.4,143 h 0.57 l 46,-143 h 46.3 z"
   id="path2" />
		
	</g><g
   fill="#ac162c"
   id="g5"
   transform="translate(-334.90988,79.5)">
	<polygon
   points="774,292 836,385 787,385 731,296 731,290 782,237 830,237 "
   id="polygon3"
   transform="translate(102.42389,-79.5)" />
	
	
	</g>
		
	
	<path
   d="m 198,219 c 23.5,-68.9 164,-94.2 314,-56.4 90,22.6 163,66.5 212,110 -21.8,-57.6 -127,-140 -273,-168 -164,-31.8 -327,-3.85 -347,69.1 -14.5,52.7 49.2,114 148,157 -44.2,-35.8 -65.8,-76.1 -53.6,-112 z"
   fill="#ac162c"
   id="path7" />
	
		
	
</g>

</svg>
